<?xml version="1.0" encoding="UTF-8"?>
<svg id="Layer_1" data-name="Layer 1" xmlns="http://www.w3.org/2000/svg" viewBox="0 0 385.85 391.92">
  <defs>
    <style>
      .cls-1 {
        fill: #04213f;
      }
    </style>
  </defs>
  <path class="cls-1" d="M77.68,134.45c2.64-15.91,26.48-15.9,27.66,2.26.52,8.01-1.59,18.64-1.28,27.74.69,19.99,5.13,38.57,19.04,53.49,2.48.52,2.17-4.89,2.5-6.69,1.93-10.29,3.5-44.52,10.41-49.77,9.27-7.05,23.22.21,22.23,12.12l-8.66,60.53c12.75,9.31,23.16,20.31,32.13,33.31,12.18-26.55,18.47-58.71,14.05-87.77-1.03-6.78-8.95-37.04-14.3-39.8-3.55-1.83-16.32-2.96-21.89-4.56-22.93-6.59-43.84-23.28-57.54-42.55-7.04-9.91-25.38-38.15-10.75-47.2,17.54-10.85,23.11,16.67,30.3,27.62,10.69,16.29,25.64,27.69,43.45,35.35-10.87-25.01-21.46-51.13-23.03-78.84-.72-12.69-1.23-34.75,18.27-28.66,12.09,3.78,8.38,18.35,9.39,27.44.91,8.18,2.71,17.26,4.67,25.27,11,44.93,42.01,75.98,49.21,122.31.34,2.17-1.04,8.18,1.84,7.33,4.94-1.46,14.89-14.72,17.31-19.51,16.83-33.35-5.75-65.21-9.68-98.67-1.12-9.55-3.29-33.76.78-41.55,5.46-10.44,22.83-7.96,24.4,4.8s.6,25.37,2.42,37.88c1.05,7.25,3.85,14.14,4.45,21.46,5.02-4.88,8.62-13.02,10.86-19.63,4.2-12.38,2.23-35.99,20.66-33.28,22.93,3.37,2.56,49.63-4.17,61.32-2.67,4.64-16.5,21.01-16.86,22.37-.59,2.23,1,5.15,1.04,7.76.44,26.03-2.93,47.37-20.75,67.41,33.8,2.9,55.81-15.75,62.91-48.1,2.81-12.79-1.13-35.73,18.15-33.69,14.49,1.53,12.09,16.46,10.76,26.96-1.41,11.13-5.34,24.7-10.01,34.89-2.14,4.68-5.34,8.37-7.09,13.04,14.32-6.2,28.2,6.94,18.39,20.17-4.11,5.54-13.6,7.26-20.15,7.48-7.26.23-19.54-4.07-24.03-3.46-2.59.35-13.07,6.14-17.9,7.48-20.06,5.59-42.72,4.84-63.21,2.88-3.28,27.49-12.27,54.06-25.3,78.31,18.48-5.41,29.51-18.04,49.96-19.61,24.98-1.92,29.96,5.62,49.61,14.87,25.9,12.2,31.69-1.94,53.01-9.95,11.76-4.42,34.86-9.59,34.88,9.51.02,15.35-16.02,13.1-26.51,17.3-19.21,7.7-27.05,17.71-51.04,15.39-27.25-2.64-40.22-29.82-70.47-16.19-14.97,6.74-21,14.74-40.04,16.32-24.82,2.05-31.38-6.71-50.89-15.77-31.08-14.43-44.15,12.81-72.22,15.65-26.7,2.7-29.53-7.11-49.6-15.67-8.73-3.72-21.68-.78-24.13-12.67-4.16-20.18,16.3-19.6,29.87-14.97,11.67,3.98,22.55,15.01,34.76,15.85,15.51,1.07,24.61-9.95,37.78-15.23,18.12-7.26,38.53-5.98,55.96,2.5-4.79-8.43-11.07-16.09-18.38-22.46-12.67-11.06-27.54-15.69-39.13-28.75-5.18-5.83-11.61-19.9-14.97-23.01-2.41-2.22-11.04-4.79-14.9-6.95-22.75-12.71-36.03-36.66-39.05-62.23-.46-3.93-1.44-17.02-.9-20.43,2.72-17.29,25.09-16.41,27.22-1.33.68,4.78-.4,10.06.12,14.85,1.58,14.69,5.75,30.75,18.38,39.75,1.49-12.7-2.01-29.93,0-42.04Z"/>
  <path class="cls-1" d="M117.66,344.97c31.27-3.53,33.54,4.95,58.1,14.86,30.69,12.38,42.81-12.88,70.29-15.22,6.31-.54,16.25-.35,22.52.56,24.37,3.54,33.49,26.33,61.99,15.01,12.89-5.12,41.26-26.2,52.9-9.19,2.06,3.01,2.47,4.28,2.39,8.06-.29,14.29-12.28,12.52-22.23,15.83-23.03,7.65-31.92,21.62-60.91,15.56-15.07-3.15-26.71-16.36-39.47-18.04-31.3-4.12-45.44,25.27-83.5,18.02-23.67-4.51-37.09-25.69-64.09-16.36-13.61,4.7-21.45,13.63-37.67,16.38-26.53,4.5-32.52-4.85-53.51-13.75-5.79-2.45-14.44-2.79-18.62-5.53-9.99-6.55-6.3-23.53,4.67-25.28,26.83-4.27,41.07,25.29,69.11,15.11,13.8-5.01,21.27-14.12,38.05-16.01Z"/>
</svg>