<?xml version="1.0" encoding="UTF-8"?>
<svg id="Layer_1" data-name="Layer 1" xmlns="http://www.w3.org/2000/svg" viewBox="0 0 324.34 328.5">
  <defs>
    <style>
      .cls-1 {
        fill: #04213f;
      }

      .cls-2 {
        fill: #042140;
      }

      .cls-3 {
        fill: #fbfbfb;
      }
    </style>
  </defs>
  <path class="cls-1" d="M292.57,241.87c8.94-3.74,17.66-14.28,27.44-6,6.98,5.91,4.79,14.99-2.17,19.8-16.81,11.63-38.6,19.74-59,14.42-18.19-4.74-24.47-18.3-45.91-12.54-15.97,4.29-23.43,13.29-42.68,12.3-19.99-1.03-35.75-18.86-55.03-12.21-15.95,5.51-23.31,15.4-43.68,15.2-21.76-.22-34-17.56-49.94-18.07-3.38-.11-6.08,1.14-8.99,1.14-15.71,0-17.93-22.77.11-24.92,10.88-1.3,20.7.8,30.54,5.17,1.74.77,5.14,4.41,6.28,2.71l46.23-131.42c5.9-11.57,12.02-11.28,20.61-18.31,16.22-13.26,23.8-62.11,34.26-81.52,4.96-9.37,17.87-10.06,24.69-2.33,9.05,10.26,14.43,30.57,23.01,41.87,11.05,14.56,25.3,11.71,31.5,33.37,4.89,17.11,5.14,43.29,15.85,57.01,5.37,6.88,13.41,12.62,16.79,21.13l30.09,83.19Z"/>
  <path class="cls-2" d="M16.94,287.03c19.18-.74,25.13,8.18,40.11,14.21,29.03,11.68,39.1-12.29,65.32-14.49,18.92-1.59,24.03,5.57,39.23,11.74,23.09,9.37,39.04-13.62,64.48-11.58,27.25,2.19,35.54,27.08,65.17,12.01,4.59-2.33,10.51-7.41,14.9-9.05,15.87-5.93,26.12,11.2,10.29,22.27-17.26,12.07-36.34,19.7-57.56,13.82-19.87-5.5-24.31-20.79-49.13-11.72-20.85,7.61-26.35,16.15-51.69,8.75-15.55-4.54-22.53-16.73-40.83-10.45s-22.65,16.07-45.72,15.96-33.22-15.19-48.92-16.76c-8.27-.82-19.84,3.05-22.22-8.73-2.21-10.94,7.25-15.63,16.58-15.99Z"/>
  <path class="cls-3" d="M269.6,247.85c-11.7-.51-19.56-11.36-30.84-13.07-1.44-14.82,4.17-31.31-8.07-42.33-3.82-3.44-15.38-13.57-19.02-15.91-11.94-7.69-25.14,5.84-15.45,18.44,3.24,4.21,18.3,15.47,18.97,16.96,1.01,2.21,1.01,19.47-.44,20.49-.67.47-11.45,2.63-14.28,3.69-8.89,3.32-17.26,9.66-27.19,9.82-12.15.19-25.99-11.68-38.34-13.12l8.95-56.28c-1.38-14.21-20.28-16.19-24.31-2.35l-10.89,60.46c-12.25,3.9-22.5,13.28-35.7,14.2l42.74-123.43c2.84-9.18,12.37-11.45,19.06-16.87,7.74-6.28,12.62-14.81,15.07-24.37,2.48,1.45,2.84,6.19,3.49,8.97,2.39,10.14,4.28,23.07,3.47,33.43-.64,8.21-6.54,19.91,4.61,24.37,15.04,6.02,19.39-8.64,20.34-20.38,1.97-24.23-4.88-50.06-11.69-73.11-1.57-5.31-5.23-10.99-4.25-16.2,6.38,6.88,8.44,16.89,14.45,23.96,6.63,7.81,17.16,11.5,23.68,19.24,6.88,21.98,6.32,46.4,20.33,65.5,5.18,7.06,12.57,12.35,17.1,19.83l28.23,78.05Z"/>
</svg>