<?xml version="1.0" encoding="UTF-8"?>
<svg id="Layer_1" data-name="Layer 1" xmlns="http://www.w3.org/2000/svg" viewBox="0 0 358.91 312.69">
  <defs>
    <style>
      .cls-1 {
        fill: #04213f;
      }

      .cls-2 {
        fill: #042140;
      }

      .cls-3 {
        fill: #04203f;
      }

      .cls-4 {
        fill: #fbfbfb;
      }
    </style>
  </defs>
  <path class="cls-1" d="M330.15,222.54c10.45,4.55,35.38,8.04,27.1,24.77-7.85,15.85-36.15-4.35-48.16-6.25-29.58-4.67-44.15,19.13-73.53,16.5-16.13-1.44-27.99-12.65-42.72-16.25-34.47-8.44-52,27.79-92.06,13.03-15.08-5.55-24.37-16.05-42.23-14.71-15.88,1.19-34.52,15.21-48.96,12.9-8.29-1.33-12.56-13.08-7.01-19.86,1.7-2.08,5.13-2.93,5.3-3.2.53-.86,2.59-16.08,3.67-19.8,5.24-18.14,10.32-23.57,12.49-44.43s4.33-33.3,19.04-50.86,26.93-17.93,47.49-22.47c10.82-14.48,10.23-40.22,20.51-53.39C128.58,16.09,171.86-2.83,200.27.35c37.24,4.18,39.78,36.56,62.31,56.58,11.44,10.17,26.45,17.17,35.7,30.24,7.68,10.85,6.54,22.21,9.26,34.67,7.34,33.58,19.11,66.31,22.62,100.69Z"/>
  <path class="cls-2" d="M56.82,269.83c23.59-2.65,31.13,8.02,50.24,15.18,28.67,10.73,42.66-13.77,70.5-15.44,25.01-1.5,33.21,10.09,53.21,16.73,21.7,7.2,32.5-8.74,51.52-14.01,28.42-7.87,44,4.52,69.82,12.67,7.46,3.43,9.28,14.69,2.9,19.98-11.64,9.64-38.38-10.7-52.48-11.43-20.33-1.05-37.8,19.26-61.97,19.05-29.12-.26-42.51-26.66-73.75-15.8-19.44,6.75-27.3,17.47-51.29,15.75-24.8-1.78-38.41-23.8-63.24-17.28-11.7,3.07-38.37,18.97-48.74,9.28-5.31-4.95-4.33-13.43,1-18.01l37.76-13.21c4.7-1.01,9.79-2.92,14.54-3.45Z"/>
  <path class="cls-4" d="M304.04,216.65h-15.5c-17.03,0-31.5,18.98-50.9,16.86-3.85-.42-24.51-9.01-26.62-11.36-.83-.93-5.72-20.37-6.97-23.98-4.62-13.38-9.72-25.86-20.49-35.44-8.69-7.73-16.51-8.62-21.3-20.66-3.93-9.88-4.99-20.08-11.79-29.15-8.79-11.72-22.12-12.4-34.41-18.52,2.9-5.16,5.21-11.32,7-16.95,2.04-6.46,3.45-16.51,5.92-22.04,4.06-9.1,39.85-27.42,50.22-29.72,37.4-8.29,38.96,19.15,58.33,41.28,11.37,12.99,26.17,19.62,36.55,30.39,7.52,7.8,6.31,18.94,8.65,29.3,6.77,29.97,18.1,59.22,21.32,90.01Z"/>
  <path class="cls-4" d="M183.05,215.65c-9.15.95-17.41,1.35-26.23,4.27-11.6,3.84-22.81,13.4-35.27,13.76-10.87.31-23.94-8.94-34.24-12.81-19.04-7.14-32.97-6.27-52.27-.24,4.53-15.44,12.81-29.02,13.99-45.41,1.18-16.44-1.93-19.56,6.84-35.09,5.93-10.5,9.14-16.39,20.96-20,16.58-5.07,34.53-3.82,49.92,4.5,8.36,4.52,11.21,26.36,16.27,35.66,7.66,14.07,24.01,16.19,31.21,30.73,3.66,7.39,5.9,16.82,8.82,24.63Z"/>
  <path class="cls-1" d="M186.84,65.22c24.58-2.33,24.53,29.22-2.21,25.59-15.96-2.17-16.57-23.81,2.21-25.59Z"/>
  <path class="cls-3" d="M220.38,144.45c-.84-.84-2.44-3.51-2.84-4.65-7.79-21.98,22.02-31.81,24.29-9.19,1.08,10.8-11.86,23.45-21.44,13.84Z"/>
  <path class="cls-1" d="M132.81,182.97c17.54-2.18,21.42,18.19,7.23,23.19-21.1,7.43-30.32-20.33-7.23-23.19Z"/>
  <path class="cls-3" d="M75.38,167.41c-11.31-11.28,5.18-29.86,17.18-18.65s-6.03,29.77-17.18,18.65Z"/>
</svg>