<?xml version="1.0" encoding="UTF-8"?>
<svg id="Layer_1" data-name="Layer 1" xmlns="http://www.w3.org/2000/svg" viewBox="0 0 357.99 288.96">
  <defs>
    <style>
      .cls-1 {
        fill: #04213f;
      }

      .cls-2 {
        fill: #042240;
      }

      .cls-3 {
        fill: #fbfbfb;
      }
    </style>
  </defs>
  <path class="cls-2" d="M244.75,163.89l36.93,17.48c-9.52,3.51-18.23,10.77-27.59,14.32-28.87,10.94-45.72-17.69-74.71-17.82-19.01-.09-28.74,9.82-44.03,16.85-27.78,12.75-41.13-11.45-66.04-15.55-9.83-1.62-18.68-.68-28.19,2.27-5.04-9.79-9.02-20.2-12.21-30.74-8.43-27.87-11.25-57.43-7.94-86.32,1.85-5.52,8.1-7.15,13.48-6.03l52.6,25.72c.15-1.42.93-2.62,1.77-3.72,8.84-11.57,19.71-29.99,29.17-39.71,4.24-4.37,8.05-5.86,13.98-2.95,23.91,13.71,53.33,23.14,76.76,37.02,4.63,2.74,6.63,4.23,7.15,9.82,1.44,15.71.5,38.77,0,54.98-.07,2.32-1.37,5-1.09,6.92.47,3.22,7.43,4.61,10.02,6.51,0-1.28.27-2.53.8-3.7,21.67-48.36,42.04-97.51,64.04-145.55,6.51-7.13,17.58-3.22,18.94,6.12-19.74,51.85-43.87,102.21-63.82,154.1Z"/>
  <path class="cls-1" d="M177.69,245.03c31.32-1.06,39.79,22.62,68.55,19.66,14.87-1.53,25.55-16.04,41.38-18.5,27.25-4.24,33.37,5.46,54.57,15.39,7.66,3.59,16.67,2.89,15.27,15.49-1.49,13.39-17.29,10.15-25.93,6.14-18.53-8.6-25.85-21.88-49.88-9.04-18.59,9.93-23.75,16.19-47.43,14.53-23.41-1.64-36.33-21.37-56.89-20.03-14.41.94-24.08,13.04-37.6,17.28-15.64,4.9-34.51,3.82-49.37-3.09-15.2-7.06-16.76-15.06-36.78-13.2-16.66,1.55-27.12,19.81-44.82,16.95-8.55-1.38-11.46-13.93-5.98-19.84,2.78-3,11.44-4.13,15.79-6.17,19.18-8.99,22.84-17.17,48.01-14.83,21.48,2,30.87,20.55,53.94,20,21.62-.52,31.8-19.87,57.16-20.73Z"/>
  <path class="cls-1" d="M52.93,191.14c22.35-1.93,27.63,4.86,45.09,14.19,11.35,6.06,28.49,6.76,39.98,1.02,17.05-8.51,22.08-16.41,44.42-15.56,27.67,1.06,33.94,21.88,64.86,19.05,15.65-1.43,26.09-17.13,47-18.88,22.61-1.89,26.96,5.55,44.27,14.36,8.57,4.36,25.52,6.14,17.19,21.14-9.11,16.41-34.85-6.82-45.14-10.16-24.56-7.96-29.84,8.74-49.12,14.7-11.45,3.54-27.05,3.98-38.69,1.25-20.78-4.87-24.3-20.43-50.4-17.48-9.53,1.08-16.63,9.11-24.76,13.16-15.9,7.92-39.89,8.11-56.09.82-15.87-7.14-16.78-16-37.96-14.03-14.42,1.34-23.75,15.26-37.99,16.89-10.44,1.2-17.39-4.09-15.13-15.13,1.68-8.18,11.7-7.83,18.11-10.83,13.69-6.42,16.37-12.99,34.36-14.55Z"/>
  <path class="cls-3" d="M139.95,111l-28.92-14.54,20.58-29.46c3.28,1.37,21.66,8.72,22.24,10.72l-13.9,33.28Z"/>
  <path class="cls-3" d="M189.86,134.95l-26.71-13.43,13.75-32.48c.52-.47,12.48,5,13,5.47,2.15,1.97-.03,3.25-.03,4.01v36.43Z"/>
</svg>